<svg width="95" height="108" fill="none" xmlns="http://www.w3.org/2000/svg"><path d="M12.294 91.224c-1.638-1.225-3.62-1.718-5.56-1.384-1.942.333-3.705 1.47-4.947 3.19C.545 94.748-.088 96.927.01 99.144c.1 2.217.923 4.314 2.311 5.884 1.389 1.57 3.243 2.5 5.204 2.612 1.962.112 3.89-.604 5.41-2.008 1.521-1.405 2.527-3.397 2.822-5.592.295-2.195-.141-4.435-1.224-6.287l9.227-10.432v15.362c.003 2.372.837 4.646 2.32 6.323 1.484 1.677 3.496 2.62 5.594 2.623h26.905v-3.578H31.674c-1.26-.002-2.466-.568-3.356-1.574-.89-1.007-1.391-2.371-1.392-3.794v-18.94l10.615-12-2.239-2.53-8.376 9.47V63.275l3.647-1.32-.964-3.408-2.683.97V48.39l9.013 3.26.965-3.408-9.978-3.61v-8.57H23.76v7.425l-7.96-2.88c.214-2.206-.304-4.424-1.454-6.224-1.15-1.8-2.85-3.052-4.77-3.515-1.921-.463-3.925-.103-5.624 1.01-1.7 1.113-2.973 2.9-3.573 5.013-.6 2.114-.484 4.404.324 6.428.81 2.022 2.254 3.634 4.054 4.521a7.08 7.08 0 005.69.28c1.86-.706 3.424-2.17 4.385-4.105l8.928 3.23v13.419l-8.928 3.23c-.96-1.933-2.52-3.393-4.38-4.098a7.068 7.068 0 00-5.679.282c-1.797.886-3.239 2.494-4.046 4.514a10.027 10.027 0 00-.324 6.416c.6 2.11 1.87 3.894 3.567 5.005 1.696 1.111 3.697 1.47 5.614 1.009 1.917-.462 3.615-1.712 4.763-3.508 1.149-1.796 1.666-4.01 1.453-6.213l7.96-2.88v13.84L12.294 91.225zm-4.36 12.828c-.94 0-1.857-.315-2.638-.905-.781-.59-1.39-1.428-1.749-2.409a6.02 6.02 0 01-.27-3.101 5.615 5.615 0 011.3-2.748c.663-.751 1.51-1.262 2.43-1.47a4.242 4.242 0 012.744.306c.867.406 1.609 1.094 2.13 1.977.522.883.8 1.92.8 2.982 0 1.423-.502 2.787-1.392 3.794-.89 1.006-2.097 1.572-3.355 1.574zm0-59.044c-.94 0-1.857-.315-2.638-.905-.781-.59-1.39-1.428-1.749-2.408a6.02 6.02 0 01-.27-3.102 5.616 5.616 0 011.3-2.748c.663-.75 1.51-1.262 2.43-1.469a4.242 4.242 0 012.744.306c.867.406 1.609 1.094 2.13 1.976.522.883.8 1.92.8 2.983 0 1.423-.502 2.787-1.392 3.793-.89 1.006-2.097 1.573-3.355 1.574zm0 28.627c-.94 0-1.857-.315-2.638-.904-.781-.59-1.39-1.428-1.749-2.41a6.021 6.021 0 01-.27-3.1 5.616 5.616 0 011.3-2.749c.663-.75 1.51-1.262 2.43-1.469a4.241 4.241 0 012.744.306c.867.406 1.609 1.094 2.13 1.977.522.882.8 1.92.8 2.982 0 1.423-.502 2.787-1.392 3.793-.89 1.007-2.097 1.573-3.355 1.574zm53.67-18.628a1.746 1.746 0 00-.584-.767 1.453 1.453 0 00-.858-.286h-7.507l4.302-21.068c.08-.393.04-.806-.114-1.17a1.703 1.703 0 00-.734-.838 1.419 1.419 0 00-1.035-.14 1.568 1.568 0 00-.887.618L33.612 59.983c-.188.262-.307.58-.343.915-.035.336.014.676.142.981.129.305.33.563.584.744.252.18.545.277.844.277h7.25L34.93 85.558a2.01 2.01 0 00.002 1.211c.125.391.367.72.684.932.317.212.69.292 1.053.226.363-.065.695-.272.939-.584l23.74-30.416a1.9 1.9 0 00.378-.917c.045-.34.003-.689-.123-1.003zM40.68 77.998l5.145-16.286c.086-.27.112-.56.078-.843a1.93 1.93 0 00-.275-.789 1.66 1.66 0 00-.565-.557 1.437 1.437 0 00-.728-.201h-6.17l14.17-19.719-3.212 15.738a2.018 2.018 0 00-.001.797c.052.263.157.508.305.72.148.21.337.38.551.497.214.117.45.178.688.178h5.988L40.68 77.998zm12.687-68.25l-2.238 2.53c-.963-1.086-2.268-1.696-3.629-1.696-1.36 0-2.666.61-3.629 1.697l-2.238-2.53C43.19 7.991 45.3 7.004 47.5 7.004s4.31.987 5.867 2.743zm2.51-1.968a11.864 11.864 0 00-3.843-2.903 10.671 10.671 0 00-4.534-1.02c-1.556 0-3.096.347-4.533 1.02a11.864 11.864 0 00-3.844 2.903l-2.238-2.53C39.703 2.071 43.52.286 47.5.286c3.98 0 7.798 1.785 10.615 4.963L55.877 7.78zM7.934 18.17c1.55.002 3.068-.515 4.36-1.486l26.174 29.59 2.238-2.531-13.78-15.579v-4.626c.001-1.423.502-2.788 1.392-3.794.89-1.006 2.097-1.572 3.356-1.574h6.935l1.145 2.59c.132.297.334.547.584.721.25.175.538.268.832.268h12.66c.295 0 .583-.093.833-.268.25-.174.452-.424.583-.721l1.146-2.59h6.935c1.259.002 2.466.568 3.356 1.574.89 1.006 1.39 2.37 1.392 3.794v4.626l-12.198 13.79 2.238 2.53 9.96-11.26v11.408l-9.978 3.61.964 3.409 9.014-3.261v7.353h3.165v-8.498l8.928-3.23c.96 1.932 2.521 3.392 4.38 4.097a7.068 7.068 0 005.68-.281c1.796-.886 3.238-2.495 4.046-4.515a10.03 10.03 0 00.323-6.416c-.6-2.11-1.87-3.894-3.566-5.005-1.697-1.11-3.697-1.47-5.615-1.009-1.917.462-3.614 1.712-4.763 3.508-1.148 1.796-1.666 4.01-1.452 6.214l-7.96 2.88V29.646l11.465-12.963c1.638 1.225 3.62 1.718 5.561 1.384 1.942-.333 3.704-1.47 4.946-3.19 1.243-1.719 1.876-3.898 1.777-6.115-.099-2.217-.922-4.314-2.31-5.884-1.39-1.57-3.244-2.5-5.205-2.612-1.961-.111-3.89.604-5.41 2.009-1.521 1.404-2.526 3.396-2.822 5.591-.295 2.195.142 4.435 1.225 6.287L71.24 24.586v-1.048c-.002-2.372-.837-4.646-2.32-6.323-1.484-1.677-3.495-2.62-5.593-2.623H31.674c-2.098.002-4.11.946-5.593 2.623-1.484 1.677-2.318 3.951-2.32 6.323v1.048l-9.228-10.432c.97-1.662 1.422-3.643 1.284-5.629-.139-1.985-.86-3.862-2.048-5.331C12.58 1.724 10.99.744 9.254.41 7.518.078 5.732.409 4.181 1.354 2.63 2.298 1.4 3.8.69 5.623a10.027 10.027 0 00-.43 5.792c.43 1.931 1.42 3.644 2.81 4.868 1.39 1.224 3.1 1.888 4.863 1.887zm79.133 16.103c.939 0 1.857.315 2.638.904.78.59 1.39 1.429 1.749 2.41.359.98.453 2.06.27 3.1a5.615 5.615 0 01-1.3 2.749c-.664.75-1.51 1.262-2.43 1.469-.922.207-1.876.1-2.744-.306-.868-.406-1.61-1.094-2.13-1.976a5.878 5.878 0 01-.801-2.982c.001-1.423.502-2.788 1.392-3.794.89-1.006 2.097-1.572 3.356-1.574zm0-30.416c.939 0 1.857.314 2.638.904.78.59 1.39 1.428 1.749 2.41.359.98.453 2.06.27 3.1a5.615 5.615 0 01-1.3 2.749c-.664.75-1.51 1.261-2.43 1.469-.922.207-1.876.1-2.744-.306-.868-.406-1.61-1.094-2.13-1.977a5.878 5.878 0 01-.801-2.982c.001-1.423.502-2.787 1.392-3.793.89-1.007 2.097-1.573 3.356-1.574zm-79.133 0c.939 0 1.857.314 2.637.904.781.59 1.39 1.428 1.75 2.41.359.98.453 2.06.27 3.1a5.615 5.615 0 01-1.3 2.749c-.664.75-1.51 1.261-2.431 1.469-.921.207-1.876.1-2.743-.306-.868-.406-1.61-1.094-2.131-1.977a5.878 5.878 0 01-.8-2.982c.001-1.423.502-2.787 1.392-3.793.89-1.007 2.097-1.573 3.356-1.574zm79.133 55.465a7.233 7.233 0 00-3.998 1.228c-1.212.804-2.213 1.958-2.9 3.343l-16.36-5.918-.964 3.409 5.23 1.892v11.407l-3.9-4.409c-1.137-1.285-2.678-2.006-4.285-2.006-1.607 0-3.148.721-4.284 2.006-1.137 1.284-1.775 3.027-1.775 4.843 0 1.817.638 3.56 1.774 4.844l5.797 6.553-.11.25c-1.359 3.05-2.028 6.432-1.949 9.845.08 3.413.904 6.751 2.401 9.716v1.305h3.166v-1.789c0-.324-.078-.643-.226-.921-1.324-2.481-2.07-5.3-2.169-8.196a19.025 19.025 0 011.607-8.36l.62-1.404c.149-.336.2-.716.147-1.087a1.88 1.88 0 00-.443-.979l-6.603-7.463c-.536-.615-.835-1.445-.832-2.308.003-.864.308-1.69.848-2.3.54-.611 1.271-.956 2.035-.96.764-.002 1.498.335 2.042.941l6.602 7.464 4.748 5.368 2.238-2.53-4.284-4.844V67.219l7.178 8.116a9.038 9.038 0 011.72 2.9 9.905 9.905 0 01.598 3.425v25.97h3.166V81.66a13.748 13.748 0 00-1.395-6.088 7.422 7.422 0 003.418 1.543 7.047 7.047 0 003.666-.373 7.846 7.846 0 003.12-2.208 9.23 9.23 0 001.898-3.564 10.05 10.05 0 00.267-4.15 9.6 9.6 0 00-1.424-3.838c-.735-1.134-1.696-2.057-2.805-2.693a7.18 7.18 0 00-3.58-.967zm-12.884 6.163l5.018 1.816a9.947 9.947 0 00.621 4.56l-5.64-6.376zm12.884 8.15c-.94 0-1.857-.315-2.638-.904-.78-.59-1.39-1.428-1.749-2.41a6.022 6.022 0 01-.27-3.1 5.615 5.615 0 011.3-2.749c.664-.75 1.51-1.262 2.43-1.469a4.241 4.241 0 012.744.306c.867.406 1.609 1.094 2.13 1.977.522.882.8 1.92.8 2.982 0 1.423-.501 2.787-1.391 3.793-.89 1.007-2.097 1.573-3.356 1.574zM41.17 100.473v-3.578h12.66v3.578H41.17z" fill="#62D6B3"/></svg>