<svg width="95" height="108" viewBox="0 0 95 108" fill="none" xmlns="http://www.w3.org/2000/svg">
<path d="M12.2942 91.224C10.6563 89.9994 8.67452 89.5061 6.73315 89.8397C4.79177 90.1733 3.02913 91.3099 1.78701 93.0293C0.544888 94.7487 -0.08821 96.9282 0.0104759 99.1453C0.109162 101.362 0.9326 103.459 2.32112 105.029C3.70965 106.599 5.56431 107.529 7.5255 107.641C9.48669 107.753 11.4146 107.037 12.9355 105.633C14.4564 104.228 15.4619 102.236 15.757 100.041C16.052 97.8464 15.6157 95.606 14.5325 93.7543L23.7602 83.3224V98.684C23.7626 101.056 24.5971 103.33 26.0806 105.007C27.5641 106.684 29.5755 107.627 31.6736 107.63H58.5789V104.052H31.6736C30.4147 104.05 29.2079 103.484 28.3178 102.478C27.4277 101.471 26.927 100.107 26.9256 98.684V79.744L37.5407 67.7437L35.3024 65.2133L26.9256 74.6833V63.2758L30.5732 61.9563L29.6086 58.5481L26.9256 59.5185V48.3897L35.9392 51.6505L36.9039 48.2421L26.9256 44.6324V36.0621H23.7602V43.4873L15.7998 40.6076C16.0144 38.4008 15.4964 36.1826 14.3464 34.3831C13.1964 32.5836 11.4963 31.3309 9.57565 30.8681C7.65503 30.4052 5.6508 30.7651 3.95159 31.878C2.25238 32.9909 0.979264 34.7774 0.379107 36.8913C-0.22105 39.0051 -0.105485 41.2955 0.703395 43.3185C1.51227 45.3414 2.95683 46.9528 4.75696 47.84C6.55709 48.7272 8.58452 48.8272 10.4461 48.1204C12.3077 47.4137 13.8708 45.9506 14.8324 44.0149L23.7602 47.2446V60.6636L14.8324 63.8933C13.8719 61.9613 12.3111 60.5012 10.4526 59.7962C8.59399 59.0912 6.57006 59.1914 4.77314 60.0775C2.97622 60.9635 1.53432 62.5722 0.72697 64.5918C-0.0803794 66.6114 -0.195664 68.8979 0.403467 71.0081C1.0026 73.1183 2.27346 74.9019 3.96968 76.013C5.66591 77.1241 7.66665 77.4837 9.58405 77.022C11.5014 76.5603 13.1989 75.3102 14.3473 73.514C15.4958 71.7179 16.0134 69.5037 15.7998 67.3006L23.7602 64.4209V78.2617L12.2942 91.224ZM7.93356 104.052C6.99449 104.052 6.07651 103.737 5.29571 103.147C4.5149 102.557 3.90634 101.719 3.54697 100.738C3.18761 99.7573 3.09358 98.6781 3.27679 97.6369C3.45999 96.5956 3.91219 95.6392 4.57621 94.8886C5.24023 94.1379 6.08624 93.6267 7.00727 93.4196C7.92829 93.2125 8.88295 93.3188 9.75054 93.725C10.6181 94.1313 11.3597 94.8193 11.8814 95.702C12.4031 96.5846 12.6816 97.6224 12.6816 98.684C12.6801 100.107 12.1794 101.471 11.2893 102.478C10.3992 103.484 9.19235 104.05 7.93356 104.052ZM7.93356 45.0081C6.99449 45.0081 6.07651 44.6933 5.29571 44.1035C4.5149 43.5137 3.90634 42.6754 3.54697 41.6946C3.18761 40.7138 3.09358 39.6346 3.27679 38.5934C3.45999 37.5522 3.91219 36.5957 4.57621 35.8451C5.24023 35.0944 6.08624 34.5832 7.00727 34.3761C7.92829 34.169 8.88295 34.2753 9.75054 34.6815C10.6181 35.0878 11.3597 35.7758 11.8814 36.6585C12.4031 37.5412 12.6816 38.5789 12.6816 39.6405C12.6801 41.0636 12.1794 42.4279 11.2893 43.4342C10.3992 44.4404 9.19235 45.0065 7.93356 45.0081ZM7.93356 73.6353C6.99449 73.6353 6.07651 73.3205 5.29571 72.7307C4.5149 72.1409 3.90634 71.3026 3.54697 70.3218C3.18761 69.341 3.09358 68.2617 3.27679 67.2205C3.45999 66.1793 3.91219 65.2229 4.57621 64.4722C5.24023 63.7215 6.08624 63.2103 7.00727 63.0032C7.92829 62.7961 8.88295 62.9024 9.75054 63.3087C10.6181 63.7149 11.3597 64.4029 11.8814 65.2856C12.4031 66.1683 12.6816 67.2061 12.6816 68.2677C12.6801 69.6907 12.1794 71.055 11.2893 72.0613C10.3992 73.0676 9.19235 73.6336 7.93356 73.6353ZM61.6042 55.0073C61.4789 54.6934 61.2761 54.4271 61.0202 54.2403C60.7643 54.0535 60.4662 53.9541 60.1616 53.9541H52.6552L56.9567 32.8863C57.0367 32.4926 56.9966 32.0798 56.8427 31.7152C56.6889 31.3505 56.4304 31.0555 56.1093 30.878C55.7883 30.7006 55.4235 30.6512 55.0745 30.7379C54.7255 30.8247 54.4126 31.0424 54.187 31.3557L33.6123 59.9828C33.4238 60.2451 33.3049 60.5625 33.2693 60.898C33.2338 61.2336 33.283 61.5737 33.4114 61.879C33.5397 62.1842 33.7419 62.4421 33.9945 62.6229C34.2472 62.8036 34.5399 62.8997 34.8389 62.9001H42.0889L34.9311 85.5578C34.8072 85.9495 34.8079 86.3779 34.9331 86.7691C35.0583 87.1603 35.3002 87.4899 35.6172 87.7013C35.9341 87.9127 36.3064 87.9926 36.6698 87.9273C37.0333 87.862 37.3652 87.6555 37.6086 87.3434L61.3486 56.9271C61.5501 56.6688 61.6814 56.3503 61.7267 56.0098C61.7721 55.6692 61.7295 55.3211 61.6042 55.0073ZM40.6801 77.9984L45.8254 61.7121C45.9106 61.4421 45.9371 61.1529 45.9028 60.8689C45.8685 60.5849 45.7744 60.3143 45.6283 60.08C45.4822 59.8458 45.2885 59.6546 45.0634 59.5226C44.8383 59.3906 44.5885 59.3217 44.3349 59.3217H38.1641L52.3359 39.6032L49.1234 55.3407C49.0699 55.603 49.0693 55.8756 49.1219 56.1381C49.1744 56.4007 49.2787 56.6464 49.4269 56.8571C49.5751 57.0677 49.7635 57.2379 49.978 57.3548C50.1924 57.4718 50.4275 57.5325 50.6656 57.5325H56.6544L40.6801 77.9984ZM53.3674 9.7482L51.1291 12.2786C50.1659 11.1921 48.8609 10.5819 47.5002 10.5819C46.1396 10.5819 44.8345 11.1921 43.8714 12.2786L41.6331 9.7482C43.1904 7.99168 45.3004 7.00522 47.5002 7.00522C49.7001 7.00522 51.8101 7.99168 53.3674 9.7482ZM55.8771 7.78008C54.777 6.53646 53.4711 5.54997 52.0337 4.87693C50.5964 4.20389 49.056 3.85748 47.5002 3.85748C45.9445 3.85748 44.404 4.20389 42.9667 4.87693C41.5294 5.54997 40.2234 6.53646 39.1234 7.78008L36.8851 5.24904C39.7026 2.07102 43.5201 0.286233 47.5002 0.286233C51.4803 0.286233 55.2979 2.07102 58.1154 5.24904L55.8771 7.78008ZM7.93356 18.1702C9.48492 18.1719 11.0021 17.6549 12.2942 16.6842L38.4676 46.2731L40.7058 43.7427L26.9256 28.1642V23.5378C26.927 22.1147 27.4277 20.7503 28.3178 19.7441C29.2079 18.7378 30.4147 18.1718 31.6736 18.1702H38.6088L39.7541 20.7596C39.8855 21.0568 40.0876 21.3067 40.3376 21.4814C40.5876 21.656 40.8757 21.7486 41.1696 21.7486H53.8309C54.1248 21.7486 54.4129 21.656 54.6629 21.4814C54.9129 21.3067 55.1149 21.0568 55.2464 20.7596L56.3916 18.1702H63.3269C64.5857 18.1718 65.7926 18.7378 66.6827 19.7441C67.5728 20.7503 68.0735 22.1147 68.0749 23.5378V28.1642L55.8771 41.9537L58.1154 44.4841L68.0749 33.2249V44.6324L58.0966 48.2421L59.0612 51.6505L68.0749 48.3897V55.7433H71.2402V47.2446L80.1681 44.0149C81.1285 45.9469 82.6893 47.407 84.5479 48.112C86.4065 48.817 88.4304 48.7168 90.2273 47.8307C92.0242 46.9447 93.4661 45.336 94.2735 43.3164C95.0808 41.2968 95.1961 39.0103 94.597 36.9001C93.9979 34.7899 92.727 33.0063 91.0308 31.8952C89.3345 30.7841 87.3338 30.4245 85.4164 30.8862C83.499 31.3479 81.8016 32.598 80.6531 34.3942C79.5047 36.1903 78.9871 38.4045 79.2006 40.6076L71.2402 43.4873V29.6465L82.7063 16.6842C84.3442 17.9088 86.3259 18.4021 88.2673 18.0685C90.2087 17.7349 91.9713 16.5983 93.2134 14.8789C94.4556 13.1595 95.0887 10.98 94.99 8.76288C94.8913 6.54577 94.0679 4.44908 92.6793 2.87936C91.2908 1.30964 89.4361 0.37875 87.475 0.267186C85.5138 0.155622 83.5858 0.871337 82.0649 2.27555C80.544 3.67976 79.5386 5.67242 79.2435 7.86713C78.9484 10.0618 79.3848 12.3022 80.468 14.1539L71.2402 24.5858V23.5378C71.2379 21.166 70.4034 18.8921 68.9199 17.2149C67.4363 15.5378 65.4249 14.5944 63.3269 14.5918H31.6736C29.5755 14.5944 27.5641 15.5378 26.0806 17.2149C24.5971 18.8921 23.7626 21.166 23.7602 23.5378V24.5858L14.5325 14.1539C15.503 12.4917 15.9549 10.5108 15.8166 8.52535C15.6782 6.53988 14.9576 4.66342 13.7688 3.19351C12.5801 1.7236 10.9914 0.744352 9.25448 0.411038C7.5176 0.0777238 5.732 0.409417 4.18079 1.35353C2.62958 2.29764 1.40155 3.80013 0.6914 5.62278C-0.0187509 7.44543 -0.170374 9.48392 0.26057 11.415C0.691514 13.3462 1.68036 15.0594 3.07033 16.2831C4.46029 17.5068 6.17183 18.1709 7.93356 18.1702ZM87.0669 34.2729C88.006 34.2729 88.9239 34.5877 89.7047 35.1775C90.4855 35.7673 91.0941 36.6056 91.4535 37.5864C91.8128 38.5672 91.9069 39.6465 91.7237 40.6877C91.5405 41.7289 91.0883 42.6853 90.4242 43.436C89.7602 44.1867 88.9142 44.6979 87.9932 44.905C87.0722 45.1121 86.1175 45.0058 85.2499 44.5995C84.3823 44.1933 83.6408 43.5053 83.1191 42.6226C82.5974 41.7399 82.3189 40.7021 82.3189 39.6405C82.3204 38.2175 82.8211 36.8532 83.7112 35.8469C84.6013 34.8406 85.8081 34.2746 87.0669 34.2729ZM87.0669 3.8566C88.006 3.8566 88.9239 4.1714 89.7047 4.7612C90.4855 5.351 91.0941 6.1893 91.4535 7.1701C91.8128 8.1509 91.9069 9.23014 91.7237 10.2714C91.5405 11.3126 91.0883 12.269 90.4242 13.0196C89.7602 13.7703 88.9142 14.2815 87.9932 14.4886C87.0722 14.6957 86.1175 14.5895 85.2499 14.1832C84.3823 13.7769 83.6408 13.089 83.1191 12.2063C82.5974 11.3236 82.3189 10.2858 82.3189 9.22419C82.3204 7.80112 82.8211 6.43682 83.7112 5.43056C84.6013 4.4243 85.8081 3.85825 87.0669 3.8566ZM7.93356 3.8566C8.87262 3.8566 9.7906 4.1714 10.5714 4.7612C11.3522 5.351 11.9608 6.1893 12.3201 7.1701C12.6795 8.1509 12.7735 9.23014 12.5903 10.2714C12.4071 11.3126 11.9549 12.269 11.2909 13.0196C10.6269 13.7703 9.78087 14.2815 8.85984 14.4886C7.93882 14.6957 6.98416 14.5895 6.11657 14.1832C5.24899 13.7769 4.50745 13.089 3.98574 12.2063C3.46402 11.3236 3.18555 10.2858 3.18555 9.22419C3.18702 7.80112 3.68773 6.43682 4.57783 5.43056C5.46794 4.4243 6.67476 3.85825 7.93356 3.8566ZM87.0669 59.3217C85.6615 59.3229 84.2818 59.747 83.0694 60.5505C81.857 61.3539 80.8556 62.5077 80.1681 63.8933L63.8092 57.9753L62.8446 61.3837L68.0749 63.2758V74.6835L64.1744 70.274C63.0381 68.9894 61.497 68.2678 59.89 68.2677C58.283 68.2677 56.7419 68.9894 55.6056 70.2739C54.4692 71.5585 53.8309 73.3008 53.8308 75.1174C53.8308 76.9341 54.4692 78.6764 55.6055 79.961L61.402 86.5139L61.2912 86.7644C59.9334 89.814 59.2642 93.196 59.3433 96.609C59.4223 100.022 60.2472 103.36 61.7442 106.325V107.63H64.9096V105.841C64.9095 105.517 64.8315 105.198 64.684 104.92C63.3596 102.439 62.6133 99.6194 62.515 96.7239C62.4166 93.8285 62.9694 90.9521 64.1216 88.3637L64.7424 86.9599C64.8909 86.6239 64.9422 86.2437 64.8889 85.873C64.8357 85.5023 64.6806 85.16 64.4456 84.8945L57.8434 77.4308C57.3075 76.8157 57.0085 75.9861 57.0114 75.1228C57.0144 74.2595 57.319 73.4325 57.859 72.8221C58.3989 72.2116 59.1305 71.8672 59.8941 71.8638C60.6577 71.8605 61.3916 72.1985 61.9357 72.8042L68.538 80.268L73.286 85.6356L75.5243 83.1053L71.2402 78.2617V67.2194L78.4184 75.335C79.1555 76.1637 79.7399 77.1494 80.1378 78.2352C80.5356 79.3209 80.739 80.4851 80.7362 81.6603V107.63H83.9016V81.6603C83.905 79.5294 83.4248 77.4332 82.5068 75.5721C83.5232 76.383 84.6943 76.9115 85.9252 77.1148C87.1561 77.3181 88.412 77.1904 89.5911 76.742C90.7701 76.2936 91.839 75.5372 92.711 74.5343C93.5829 73.5313 94.2334 72.31 94.6095 70.9696C94.9857 69.6291 95.0769 68.2073 94.8758 66.8195C94.6747 65.4317 94.187 64.1171 93.4522 62.9823C92.7174 61.8476 91.7563 60.9248 90.6468 60.2887C89.5373 59.6527 88.3109 59.3214 87.0669 59.3217ZM74.1828 65.4853L79.2006 67.3006C79.0495 68.8559 79.2638 70.4288 79.822 71.8606L74.1828 65.4853ZM87.0669 73.6353C86.1278 73.6353 85.2099 73.3205 84.4291 72.7307C83.6482 72.1409 83.0397 71.3026 82.6803 70.3218C82.321 69.341 82.2269 68.2617 82.4101 67.2205C82.5933 66.1793 83.0455 65.2229 83.7096 64.4722C84.3736 63.7215 85.2196 63.2103 86.1406 63.0032C87.0616 62.7961 88.0163 62.9024 88.8839 63.3087C89.7515 63.7149 90.493 64.4029 91.0147 65.2856C91.5364 66.1683 91.8149 67.2061 91.8149 68.2677C91.8134 69.6907 91.3127 71.055 90.4226 72.0613C89.5325 73.0676 88.3257 73.6336 87.0669 73.6353ZM41.1696 100.473V96.8948H53.8309V100.473H41.1696Z" fill="#62D6B3"/>
</svg>
